<svg width="279" height="279" viewBox="0 0 279 279" fill="none" xmlns="http://www.w3.org/2000/svg">
<rect width="279" height="279" fill="#E5E5E5"/>
<g clip-path="url(#clip0)">
<rect width="279" height="279" fill="white"/>
<circle cx="139.761" cy="138" r="132" fill="#139EED"/>
<path d="M27.3496 201.318C25.8258 201.891 24.6106 201.972 23.7038 201.561C22.7815 201.108 21.9642 199.935 21.2517 198.041C20.7715 196.764 20.2832 195.091 19.7868 193.021C19.3162 190.895 18.7314 187.965 18.0326 184.232C16.6715 177.363 15.4092 171.445 14.2457 166.476C13.5012 163.372 12.7571 160.831 12.0137 158.854C11.3166 157.001 10.2886 156.33 8.92955 156.841C7.85878 157.244 6.7706 158.288 5.66502 159.973C4.58513 161.601 3.58834 163.95 2.67464 167.021C2.39236 168.02 1.90117 168.651 1.20105 168.915C0.624476 169.131 0.00900143 169.057 -0.645378 168.692C-1.27406 168.271 -1.72006 167.71 -1.98338 167.01C-2.23121 166.351 -2.35548 165.645 -2.35621 164.893C-2.33124 164.085 -2.17252 163.132 -1.88004 162.035C-0.941008 158.532 0.464615 155.582 2.33683 153.186C4.19356 150.748 6.33684 149.073 8.76667 148.159C11.0318 147.307 13.0325 147.377 14.769 148.369C16.5466 149.346 17.9543 151.214 18.9921 153.973C19.4103 155.085 19.803 156.442 20.1702 158.043C20.5219 159.603 20.7935 160.888 20.985 161.897C21.1765 162.906 21.3008 163.611 21.3578 164.013C21.1805 156.417 22.0583 150.752 23.991 147.016C25.9082 143.24 28.6171 140.693 32.1177 139.376C34.7947 138.37 37.2513 138.527 39.4876 139.848C41.7651 141.154 43.5543 143.537 44.8554 146.996C45.3666 148.355 45.8163 150.113 46.2046 152.271C46.1263 145.813 47.0021 140.83 48.832 137.321C50.662 133.812 53.3684 131.384 56.9514 130.036C59.8343 128.952 62.3861 129.05 64.6069 130.33C66.8689 131.595 68.6272 133.895 69.8818 137.231C70.5633 139.043 71.1243 141.347 71.5648 144.143L74.4413 163.228C74.804 165.442 75.2641 167.29 75.8217 168.773C76.4722 170.503 77.3514 171.653 78.4592 172.223C79.6081 172.778 80.9033 172.785 82.3447 172.243C83.7038 171.732 84.8513 170.783 85.7872 169.397C86.7643 167.995 87.7433 165.911 88.7243 163.145C89.0016 162.382 89.4492 161.885 90.0669 161.652C90.6023 161.451 91.1071 161.543 91.5812 161.929C92.0966 162.299 92.5169 162.917 92.8422 163.782C93.4462 165.388 93.5352 166.812 93.1089 168.053C91.9432 171.453 90.5348 174.145 88.8836 176.13C87.2324 178.114 85.2537 179.54 82.9474 180.407C79.4468 181.724 76.3209 181.724 73.5696 180.409C70.8028 179.052 68.7612 176.623 67.4446 173.122C66.5307 170.693 65.7006 166.985 64.9542 162.001L63.1734 149.767C63.1164 149.365 63.0127 148.652 62.8624 147.628C62.712 146.603 62.5437 145.655 62.3575 144.785C62.1558 143.874 61.9 143.006 61.5903 142.183C61.0481 140.741 60.3571 139.779 59.5172 139.296C58.703 138.756 57.7812 138.679 56.7516 139.067C54.8159 139.795 53.2498 141.818 52.0531 145.135C50.8821 148.396 50.413 153.273 50.6459 159.767C50.9199 166.245 52.1946 174.322 54.4698 183.996C55.1109 186.575 55.2234 188.437 54.8074 189.581C54.4171 190.668 53.4188 191.513 51.8127 192.117C50.4124 192.644 49.2589 192.702 48.3521 192.29C47.4866 191.864 46.713 190.744 46.0315 188.932C45.3964 187.244 44.7943 184.955 44.225 182.067C43.6402 179.137 43.0009 175.687 42.307 171.718C40.453 161.039 38.9839 154.258 37.8997 151.375C37.3111 149.81 36.5685 148.773 35.672 148.264C34.8166 147.74 33.7917 147.702 32.5974 148.151C30.5794 148.91 28.9334 150.845 27.6592 153.957C26.3696 157.028 25.7949 161.874 25.9352 168.497C26.1012 175.063 27.3711 183.564 29.7449 194C30.2466 196.209 30.3641 197.834 30.0973 198.874C29.8717 199.899 28.9558 200.714 27.3496 201.318Z" fill="white"/>
<path d="M99.7146 174.101C97.1612 175.061 94.7741 174.902 92.5533 173.621C90.3325 172.341 88.6567 170.198 87.526 167.192C86.2869 163.897 85.8793 160.501 86.3034 157.004C86.712 153.465 87.8393 150.338 89.6855 147.623C91.5573 144.85 93.9141 142.93 96.7558 141.861C97.6618 141.52 98.3287 141.481 98.7563 141.743C99.2097 141.949 99.7098 142.466 100.256 143.294C101.059 142.804 101.934 142.381 102.882 142.025C104.9 141.266 106.18 141.607 106.722 143.049C107.047 143.914 107.513 146.089 108.119 149.575C108.953 154.667 109.718 158.14 110.415 159.993C110.647 160.611 110.977 161.051 111.405 161.313C111.874 161.56 112.356 161.59 112.85 161.404C113.632 161.11 114.394 160.26 115.134 158.853C115.859 157.405 116.742 155.193 117.785 152.215C118.062 151.453 118.51 150.955 119.127 150.723C119.663 150.521 120.168 150.614 120.642 150.999C121.157 151.37 121.577 151.987 121.903 152.852C122.522 154.499 122.611 155.923 122.169 157.124C121.271 159.859 120.145 162.304 118.793 164.458C117.441 166.612 115.879 168.022 114.108 168.688C112.749 169.199 111.323 169.218 109.829 168.746C108.361 168.217 107.036 167.258 105.855 165.868C105.015 170.133 102.968 172.877 99.7146 174.101ZM99.5919 167.025C100.498 166.685 101.161 165.824 101.582 164.443C102.003 163.063 102.066 161.417 101.771 159.507L99.7814 147.281C98.0671 147.973 96.7088 149.236 95.7064 151.07C94.7296 152.847 94.1961 154.929 94.1057 157.313C94.0153 159.697 94.4038 162.043 95.2712 164.349C95.7513 165.626 96.3547 166.48 97.0812 166.912C97.8489 167.328 98.6858 167.366 99.5919 167.025Z" fill="white"/>
<path d="M147.512 140.188C148.047 139.987 148.56 140.1 149.049 140.527C149.565 140.897 149.97 141.473 150.264 142.256C150.62 143.203 150.755 143.999 150.668 144.642C150.581 145.286 150.306 145.93 149.843 146.574L140.979 159.004C142.621 168.118 143.079 175.585 142.353 181.405C141.684 187.25 139.393 190.909 135.481 192.38C133.38 193.17 131.423 193.154 129.61 192.332C127.812 191.551 126.518 190.11 125.728 188.01C125 186.074 124.689 183.935 124.795 181.592C124.942 179.233 125.714 176.286 127.111 172.752C128.565 169.244 130.861 164.972 133.997 159.938L133.648 158.448C133.363 156.815 132.872 154.509 132.174 151.528C132.465 154.803 132.164 157.501 131.27 159.624C130.361 161.705 129.082 163.056 127.435 163.675C125.582 164.372 123.74 164.101 121.911 162.862C120.107 161.566 118.725 159.641 117.765 157.088C116.603 153.999 115.748 151.101 115.2 148.392C114.636 145.643 114.285 142.649 114.148 139.41C114.095 138.019 114.339 136.917 114.879 136.103C115.419 135.288 116.492 134.579 118.098 133.975C119.004 133.634 119.676 133.546 120.114 133.711C120.593 133.86 120.941 134.222 121.158 134.799C121.282 135.128 121.473 136.325 121.733 138.39C121.894 140.069 122.083 141.572 122.301 142.901C122.607 144.713 122.93 146.449 123.272 148.106C123.598 149.723 123.946 151.026 124.318 152.014C124.907 153.579 125.634 154.199 126.498 153.874C127.116 153.641 127.646 152.737 128.087 151.161C128.57 149.569 128.853 147.323 128.938 144.424C129.064 141.509 128.932 138.033 128.542 133.996C128.406 132.637 128.568 131.565 129.025 130.782C129.524 129.983 130.453 129.328 131.812 128.817C132.759 128.461 133.465 128.337 133.928 128.444C134.392 128.552 134.732 128.894 134.949 129.471C135.336 130.5 136.133 134.244 137.339 140.7L139.473 151.25C141.746 147.669 144.014 144.324 146.277 141.217C146.688 140.686 147.1 140.343 147.512 140.188ZM133.907 186.133C134.936 185.745 135.64 184.117 136.018 181.249C136.397 178.38 136.179 173.925 135.364 167.885C133.2 171.755 131.808 175.052 131.187 177.777C130.623 180.528 130.651 182.727 131.271 184.374C131.534 185.074 131.875 185.604 132.292 185.964C132.751 186.309 133.289 186.365 133.907 186.133Z" fill="white"/>
<path d="M156.332 152.807C154.478 153.504 152.637 153.233 150.808 151.994C149.004 150.698 147.622 148.773 146.662 146.22C145.5 143.131 144.645 140.232 144.096 137.524C143.532 134.775 143.182 131.78 143.045 128.541C142.992 127.151 143.236 126.049 143.776 125.234C144.315 124.42 145.388 123.711 146.995 123.107C147.901 122.766 148.573 122.678 149.011 122.842C149.49 122.991 149.838 123.354 150.054 123.931C150.178 124.26 150.37 125.457 150.63 127.522C150.791 129.201 150.98 130.704 151.198 132.033C152.001 136.667 152.673 139.705 153.215 141.146C153.54 142.011 153.876 142.59 154.221 142.883C154.551 143.135 154.942 143.176 155.395 143.006C156.013 142.773 156.543 141.869 156.984 140.293C157.466 138.701 157.75 136.455 157.835 133.556C157.961 130.641 157.829 127.165 157.438 123.128C157.303 121.768 157.464 120.697 157.922 119.914C158.421 119.115 159.35 118.46 160.709 117.949C161.656 117.593 162.361 117.469 162.825 117.576C163.273 117.643 163.613 117.985 163.846 118.603C164.233 119.632 164.779 122.647 165.484 127.647C166.314 133.352 166.961 136.822 167.426 138.058C167.72 138.84 168.117 139.396 168.617 139.725C169.101 140.013 169.611 140.056 170.146 139.855C170.97 139.545 171.752 138.687 172.492 137.28C173.258 135.817 174.162 133.597 175.205 130.619C175.482 129.857 175.93 129.359 176.548 129.127C177.083 128.926 177.588 129.018 178.062 129.404C178.577 129.774 178.997 130.391 179.323 131.256C179.942 132.904 180.031 134.327 179.59 135.528C178.64 138.377 177.398 140.888 175.866 143.063C174.374 145.222 172.331 146.79 169.737 147.766C167.76 148.509 166.011 148.297 164.491 147.129C163.012 145.946 161.754 143.975 160.716 141.216C161.069 144.28 160.832 146.837 160.005 148.887C159.162 150.897 157.938 152.203 156.332 152.807Z" fill="white"/>
<path d="M208.974 116.931C209.51 116.73 210.014 116.822 210.489 117.208C211.004 117.578 211.424 118.196 211.749 119.061C212.369 120.708 212.458 122.132 212.016 123.332C211.015 126.294 209.823 128.811 208.439 130.883C207.056 132.954 205.067 134.478 202.472 135.454C199.301 136.646 196.407 136.701 193.79 135.616C191.173 134.532 189.299 132.487 188.168 129.481C187.564 127.875 187.954 126.412 189.338 125.092C190.856 123.628 191.843 122.316 192.301 121.157C192.742 119.957 192.723 118.718 192.243 117.442C191.964 116.7 191.59 116.206 191.121 115.96C190.694 115.697 190.253 115.652 189.8 115.822C188.688 116.24 187.755 117.508 187 119.625C186.286 121.727 185.833 124.271 185.64 127.258C185.432 130.204 185.502 133.14 185.849 136.064C186.124 138.17 186.085 139.69 185.73 140.622C185.402 141.498 184.599 142.176 183.322 142.656C182.045 143.136 180.928 143.039 179.969 142.366C179.037 141.635 178.103 140.341 177.169 138.483C176.235 136.625 175.064 133.822 173.654 130.074C171.269 123.732 169.421 116.882 168.111 109.524C166.842 102.151 166.589 95.6648 167.351 90.0662C168.138 84.4109 170.303 80.9173 173.845 79.5852C175.739 78.8727 177.573 79.1233 179.345 80.3369C181.144 81.4939 182.531 83.3696 183.507 85.9642C185.071 90.1237 185.483 94.9049 184.741 100.308C183.984 105.669 181.99 112.366 178.758 120.398C179.44 122.586 180.207 124.812 181.059 127.078C181.1 121.186 181.963 116.607 183.649 113.34C185.32 110.033 187.267 107.961 189.491 107.124C191.55 106.35 193.461 106.43 195.223 107.366C197.026 108.286 198.315 109.776 199.089 111.835C199.941 114.1 200.147 116.396 199.706 118.725C199.266 121.053 197.924 123.485 195.681 126.021C196.264 127.071 197.099 127.791 198.186 128.181C199.299 128.515 200.452 128.457 201.646 128.008C202.923 127.528 203.973 126.569 204.795 125.131C205.618 123.694 206.563 121.458 207.632 118.423C207.909 117.661 208.357 117.164 208.974 116.931ZM174.848 86.1889C174.106 86.4677 173.685 87.8482 173.585 90.3305C173.469 92.7717 173.66 95.9669 174.158 99.9164C174.682 103.809 175.474 107.977 176.534 112.42C177.956 108.454 178.825 104.39 179.141 100.228C179.497 96.0514 179.133 92.5216 178.049 89.6387C177.553 88.3208 177.03 87.3661 176.478 86.7744C175.927 86.1827 175.383 85.9875 174.848 86.1889Z" fill="white"/>
<path d="M221.947 94.9173C223.265 94.4217 224.385 94.4 225.307 94.8523C226.255 95.2479 226.977 96.1046 227.473 97.4225C227.875 98.4933 228.408 100.596 229.07 103.732C229.603 106.399 230.172 108.912 230.777 111.27C231.366 113.587 232.179 116.125 233.217 118.884C233.806 120.449 233.902 121.705 233.507 122.653C233.137 123.545 232.231 124.261 230.79 124.803C229.431 125.315 228.311 125.336 227.43 124.868C226.548 124.401 225.845 123.467 225.318 122.066C224.698 120.419 223.964 117.593 223.116 113.587C222.371 110.106 221.828 107.913 221.487 107.007C221.24 106.348 220.889 106.104 220.436 106.274C219.901 106.475 219.402 107.462 218.94 109.234C218.463 110.965 218.156 113.149 218.02 115.786C217.883 118.422 217.979 121.113 218.306 123.858C218.581 125.964 218.541 127.483 218.186 128.415C217.858 129.291 217.055 129.969 215.778 130.449C214.502 130.929 213.384 130.833 212.425 130.159C211.493 129.429 210.559 128.134 209.625 126.276C208.691 124.418 207.52 121.615 206.11 117.867C203.725 111.525 201.877 104.675 200.567 97.3172C199.298 89.9439 199.045 83.4579 199.807 77.8593C200.594 72.2041 202.759 68.7104 206.301 67.3783C208.195 66.6658 210.029 66.9164 211.802 68.1301C213.6 69.287 214.987 71.1628 215.963 73.7574C217.527 77.9169 217.939 82.6981 217.197 88.101C216.44 93.4627 214.446 100.159 211.215 108.191C211.897 110.379 212.663 112.606 213.515 114.871C213.558 110.859 213.992 107.452 214.819 104.65C215.671 101.791 216.722 99.5855 217.972 98.0342C219.263 96.4674 220.588 95.4285 221.947 94.9173ZM207.304 73.982C206.563 74.2608 206.142 75.6414 206.041 78.1237C205.925 80.5648 206.116 83.7601 206.614 87.7095C207.138 91.6023 207.93 95.7703 208.99 100.214C210.413 96.2468 211.282 92.1828 211.597 88.0214C211.953 83.8446 211.589 80.3147 210.505 77.4319C210.01 76.114 209.486 75.1592 208.934 74.5675C208.383 73.9758 207.839 73.7807 207.304 73.982Z" fill="white"/>
<path d="M233.743 81.3845C232.837 81.7253 232.039 81.7904 231.349 81.58C230.658 81.3695 230.143 80.8112 229.802 79.9052C229.663 79.5345 229.562 79.0789 229.499 78.5382C229.24 76.4734 228.911 74.5992 228.513 72.9155C228.156 71.2165 227.606 69.3785 226.862 67.4017C226.088 65.3425 225.965 63.5788 226.494 62.1106C227.064 60.6269 228.111 59.5985 229.635 59.0254C231.118 58.4678 232.385 58.4614 233.436 59.0063C234.512 59.4945 235.306 60.4181 235.817 61.7772C236.36 63.2186 236.647 65.2963 236.681 68.0102C236.714 70.7241 236.539 73.446 236.156 76.1757C235.905 78.0093 235.626 79.2661 235.317 79.9462C235.05 80.6108 234.526 81.0902 233.743 81.3845Z" fill="white"/>
<path d="M267.303 112.622C265.162 113.427 263.329 113.553 261.804 112.998C260.32 112.428 259.346 111.525 258.881 110.289C258.478 109.219 258.521 108.145 259.009 107.068C259.498 105.991 260.504 105.166 262.027 104.593C262.563 104.392 263.204 104.221 263.95 104.082C264.723 103.885 265.302 103.738 265.688 103.64C265.244 102.584 264.617 101.668 263.808 100.891C263.04 100.099 262.164 99.3944 261.18 98.7774C260.18 98.1192 259.268 97.569 258.444 97.1269C258.081 100.037 257.563 102.535 256.89 104.621C256.259 106.692 255.473 108.727 254.533 110.726C254.07 111.746 253.427 112.411 252.603 112.721C251.944 112.969 251.324 112.944 250.742 112.646C250.144 112.306 249.713 111.787 249.45 111.086C249.14 110.263 249.142 109.392 249.455 108.475L249.887 107.185C251.098 103.533 251.94 100.584 252.412 98.3378C252.704 96.8647 252.911 95.165 253.032 93.2389C253.195 91.2972 253.36 88.6733 253.527 85.3669C253.628 83.2605 254.914 81.7427 257.385 80.8133C258.538 80.3796 259.38 80.1806 259.91 80.2161C260.441 80.2516 260.791 80.4959 260.962 80.9489C261.055 81.196 261.119 81.6182 261.156 82.2156C261.193 82.8129 261.167 83.4335 261.081 84.0773C260.897 85.8387 260.999 87.2342 261.386 88.2638C261.618 88.8816 262.08 89.4837 262.77 90.0701C263.502 90.641 264.53 91.312 265.854 92.0832C267.823 93.3173 269.369 94.4282 270.492 95.4158C271.642 96.3469 272.487 97.5331 273.03 98.9745C273.68 100.704 273.888 102.506 273.653 104.381C273.443 106.199 272.796 107.853 271.711 109.342C270.626 110.832 269.157 111.925 267.303 112.622Z" fill="white"/>
<path d="M122.998 214.367C123.273 214.264 123.515 214.273 123.725 214.394C123.934 214.514 124.088 214.705 124.186 214.967C124.306 215.29 124.304 215.625 124.179 215.97C124.062 216.297 123.82 216.529 123.453 216.667C122.824 216.902 121.87 217.208 120.591 217.587C120.337 217.667 119.869 217.814 119.186 218.026C118.503 218.239 117.972 218.416 117.591 218.558C117.421 218.622 117.193 218.771 116.907 219.006C116.846 219.042 116.726 219.123 116.548 219.246C116.383 219.364 116.235 219.448 116.104 219.497C115.894 219.575 115.684 219.554 115.475 219.434C115.274 219.296 115.106 219.047 114.971 218.685C114.822 218.287 114.807 217.945 114.924 217.66C115.037 217.362 115.271 217.048 115.626 216.717C116.378 216.01 117.041 215.223 117.613 214.356C118.195 213.472 118.596 212.606 118.817 211.757C119.051 210.903 119.054 210.171 118.826 209.561C118.645 209.075 118.394 208.764 118.074 208.628C117.763 208.475 117.358 208.492 116.86 208.678C116.282 208.893 115.873 209.217 115.63 209.648C115.401 210.074 115.386 210.555 115.586 211.09C115.861 211.825 115.611 212.337 114.837 212.626C114.47 212.763 114.144 212.771 113.86 212.651C113.589 212.525 113.384 212.275 113.244 211.902C113.011 211.279 112.968 210.642 113.114 209.992C113.259 209.341 113.615 208.733 114.18 208.167C114.741 207.589 115.514 207.116 116.497 206.748C117.678 206.307 118.707 206.242 119.585 206.553C120.463 206.863 121.089 207.517 121.461 208.513C121.814 209.459 121.745 210.613 121.252 211.975C120.773 213.332 119.862 214.715 118.521 216.125L122.998 214.367Z" fill="white"/>
<path d="M130.494 214.057C129.209 214.538 128.063 214.511 127.057 213.979C126.065 213.442 125.291 212.432 124.738 210.95C124.268 209.692 124.057 208.508 124.106 207.397C124.162 206.269 124.458 205.3 124.992 204.49C125.54 203.675 126.305 203.084 127.289 202.717C128.574 202.237 129.713 202.265 130.706 202.803C131.712 203.335 132.492 204.342 133.045 205.824C133.515 207.082 133.722 208.275 133.665 209.403C133.617 210.514 133.319 211.477 132.771 212.292C132.237 213.101 131.478 213.69 130.494 214.057ZM129.909 211.892C130.618 211.627 131.035 211.045 131.163 210.146C131.29 209.247 131.114 208.156 130.635 206.874C130.314 206.014 129.919 205.417 129.45 205.081C128.976 204.733 128.451 204.667 127.874 204.882C127.166 205.147 126.75 205.735 126.627 206.647C126.5 207.546 126.676 208.637 127.155 209.919C127.476 210.779 127.864 211.378 128.32 211.719C128.79 212.055 129.319 212.112 129.909 211.892Z" fill="white"/>
<path d="M139.995 210.508C139.667 210.631 139.344 210.645 139.025 210.551C138.706 210.458 138.472 210.212 138.323 209.813L138.266 209.6C137.931 208.264 137.604 206.867 137.284 205.412C136.973 203.938 136.75 202.801 136.615 202L135.234 202.984L135.012 203.11C134.763 203.203 134.531 203.183 134.317 203.05C134.103 202.917 133.952 202.732 133.864 202.496L133.821 202.32C133.758 202.074 133.765 201.852 133.84 201.653C133.916 201.455 134.109 201.212 134.42 200.926C134.745 200.634 135.248 200.261 135.931 199.808L136.687 199.312C136.966 199.137 137.203 199.013 137.4 198.94C137.78 198.798 138.097 198.786 138.35 198.904C138.617 199.017 138.813 199.242 138.939 199.578C138.994 199.728 139.035 199.897 139.061 200.086C139.214 201.136 139.847 204.05 140.959 208.828C141.143 209.64 140.822 210.2 139.995 210.508Z" fill="white"/>
<path d="M145.19 196.03C146.54 195.525 147.721 195.545 148.732 196.09C149.751 196.618 150.525 197.591 151.056 199.011C151.53 200.281 151.722 201.494 151.63 202.649C151.547 203.787 151.188 204.787 150.554 205.649C149.928 206.493 149.057 207.123 147.942 207.54C146.933 207.917 146.018 208.01 145.2 207.819C144.39 207.611 143.804 207.163 143.442 206.475L143.346 206.276C143.225 205.953 143.237 205.664 143.381 205.412C143.535 205.142 143.808 204.933 144.201 204.786C144.49 204.678 144.747 204.667 144.974 204.753C145.208 204.821 145.456 205.005 145.718 205.305C145.92 205.528 146.168 205.669 146.46 205.731C146.765 205.787 147.101 205.747 147.468 205.609C148.229 205.325 148.74 204.815 149.003 204.078C149.274 203.324 149.26 202.364 148.959 201.199C148.758 201.7 148.471 202.113 148.098 202.436C147.721 202.747 147.271 203.001 146.746 203.197C146.09 203.442 145.451 203.532 144.829 203.466C144.22 203.395 143.685 203.184 143.224 202.831C142.759 202.465 142.419 201.996 142.205 201.423C141.94 200.713 141.873 200.015 142.005 199.327C142.145 198.622 142.483 197.985 143.017 197.416C143.561 196.83 144.285 196.368 145.19 196.03ZM146.638 201.108C147.202 200.898 147.586 200.584 147.789 200.168C147.992 199.751 148.001 199.294 147.815 198.796C147.647 198.347 147.383 198.042 147.023 197.878C146.663 197.714 146.247 197.721 145.775 197.897C145.251 198.093 144.885 198.414 144.678 198.861C144.479 199.289 144.476 199.759 144.666 200.27C144.824 200.693 145.081 200.981 145.437 201.132C145.792 201.283 146.193 201.275 146.638 201.108Z" fill="white"/>
<path d="M164.45 196.519C164.621 196.456 164.78 196.481 164.927 196.597C165.088 196.707 165.217 196.893 165.315 197.154C165.501 197.652 165.521 198.085 165.374 198.452C165.017 199.337 164.597 200.112 164.112 200.775C163.641 201.434 162.998 201.915 162.185 202.219C161.517 202.469 160.944 202.477 160.468 202.243C159.988 201.997 159.617 201.525 159.357 200.828C159.226 200.479 159.086 199.822 158.934 198.857C158.812 198.008 158.695 197.435 158.583 197.136C158.508 196.937 158.399 196.864 158.255 196.918C158.084 196.982 157.921 197.284 157.764 197.825C157.603 198.354 157.493 199.019 157.434 199.822C157.375 200.624 157.389 201.442 157.476 202.275C157.599 203.364 157.169 204.093 156.185 204.46C155.792 204.607 155.481 204.574 155.252 204.362C155.032 204.132 154.791 203.668 154.531 202.971C154.382 202.573 154.27 202.253 154.194 202.011L153.656 200.509C152.939 198.591 152.396 196.517 152.026 194.285C151.668 192.049 151.627 190.077 151.901 188.371C152.184 186.648 152.889 185.575 154.017 185.154C154.62 184.929 155.199 184.996 155.752 185.357C156.314 185.701 156.741 186.265 157.034 187.05C157.504 188.307 157.606 189.76 157.339 191.406C157.068 193.04 156.397 195.086 155.328 197.543C155.53 198.205 155.759 198.879 156.015 199.564C156.053 198.344 156.21 197.306 156.488 196.45C156.775 195.576 157.12 194.901 157.525 194.423C157.942 193.941 158.367 193.619 158.8 193.457C159.653 193.139 160.23 193.384 160.533 194.194C160.714 194.679 160.898 195.611 161.084 196.989C161.239 198.166 161.382 198.929 161.512 199.277C161.699 199.775 161.982 199.953 162.362 199.811C162.624 199.713 162.877 199.449 163.119 199.018C163.37 198.569 163.669 197.89 164.017 196.979C164.109 196.746 164.253 196.593 164.45 196.519ZM154.295 187.158C154.059 187.246 153.918 187.668 153.871 188.423C153.82 189.166 153.861 190.137 153.995 191.336C154.137 192.517 154.363 193.781 154.672 195.127C155.145 193.914 155.444 192.675 155.569 191.408C155.706 190.136 155.612 189.064 155.287 188.192C155.138 187.794 154.978 187.506 154.807 187.328C154.636 187.151 154.465 187.094 154.295 187.158Z" fill="white"/>
<path d="M165.62 192.932C165.826 193.565 165.994 194.055 166.125 194.404C166.46 195.3 166.768 195.987 167.051 196.463C167.342 196.922 167.641 197.222 167.947 197.363C168.263 197.486 168.623 197.472 169.03 197.32C169.24 197.242 169.466 197.087 169.708 196.854C169.95 196.622 170.152 196.362 170.313 196.075C170.411 195.896 170.532 195.78 170.676 195.726C170.834 195.667 170.991 195.708 171.148 195.848C171.313 195.971 171.44 196.151 171.528 196.387C171.617 196.624 171.65 196.874 171.629 197.137C171.621 197.396 171.547 197.636 171.406 197.859C170.924 198.649 170.25 199.206 169.384 199.53C168.139 199.995 167.043 199.844 166.099 199.075C165.15 198.295 164.377 197.107 163.782 195.513C163.577 194.965 163.39 194.404 163.22 193.829L162.452 194.115C162.059 194.262 161.765 194.294 161.569 194.211C161.387 194.123 161.24 193.93 161.128 193.631C160.868 192.933 161.032 192.474 161.623 192.254L162.744 191.835C162.455 190.382 162.329 189.003 162.364 187.698C162.4 186.393 162.614 185.285 163.005 184.372C163.409 183.455 163.985 182.856 164.733 182.577C165.284 182.371 165.803 182.44 166.29 182.783C166.776 183.127 167.15 183.647 167.411 184.344C168.132 186.275 167.907 188.274 166.737 190.343L168.941 189.52C169.151 189.442 169.318 189.429 169.442 189.482C169.566 189.535 169.673 189.68 169.761 189.916C170.082 190.775 169.502 191.482 168.02 192.036L165.62 192.932ZM164.872 184.569C164.675 184.642 164.541 184.962 164.468 185.529C164.404 186.078 164.417 186.811 164.505 187.729C164.603 188.629 164.767 189.61 165 190.673C165.536 189.749 165.848 188.823 165.936 187.897C166.031 186.953 165.958 186.157 165.716 185.509C165.442 184.775 165.16 184.461 164.872 184.569Z" fill="white"/>
<path d="M176.035 197.045C175.708 197.168 175.384 197.182 175.065 197.088C174.746 196.995 174.512 196.748 174.363 196.35L174.306 196.137C173.971 194.8 173.644 193.404 173.324 191.948C173.013 190.475 172.79 189.338 172.655 188.537L171.274 189.521L171.052 189.647C170.803 189.74 170.572 189.72 170.357 189.587C170.143 189.454 169.992 189.269 169.904 189.033L169.861 188.857C169.799 188.611 169.805 188.388 169.88 188.19C169.956 187.992 170.149 187.749 170.46 187.462C170.785 187.171 171.288 186.798 171.971 186.345L172.727 185.849C173.006 185.674 173.243 185.55 173.44 185.477C173.82 185.335 174.137 185.323 174.391 185.441C174.657 185.554 174.853 185.779 174.979 186.115C175.035 186.265 175.075 186.434 175.101 186.623C175.254 187.673 175.887 190.587 176.999 195.365C177.183 196.176 176.862 196.736 176.035 197.045Z" fill="white"/>
<path d="M184.536 187.696C185.237 187.534 185.892 187.587 186.501 187.856C187.123 188.121 187.557 188.583 187.804 189.243C188.041 189.878 188.04 190.496 187.801 191.096C187.562 191.696 187.139 192.244 186.532 192.741C185.934 193.22 185.228 193.611 184.415 193.915C182.986 194.449 181.822 194.614 180.924 194.41C180.039 194.201 179.464 193.742 179.199 193.032C179.045 192.621 179.031 192.265 179.158 191.962C179.279 191.647 179.517 191.423 179.871 191.291C180.172 191.178 180.423 191.17 180.623 191.265C180.832 191.344 181.054 191.537 181.289 191.847C181.506 192.149 181.792 192.333 182.146 192.4C182.499 192.466 182.978 192.387 183.581 192.161C184.158 191.946 184.593 191.67 184.886 191.333C185.187 190.98 185.259 190.591 185.1 190.168C184.938 189.732 184.642 189.48 184.213 189.413C183.78 189.334 183.185 189.421 182.428 189.676C182.148 189.766 181.906 189.757 181.701 189.649C181.505 189.524 181.362 189.343 181.274 189.106C181.162 188.808 181.136 188.576 181.194 188.413C181.261 188.231 181.423 188.065 181.68 187.912C182.499 187.464 183.033 186.995 183.283 186.504C183.542 185.996 183.578 185.493 183.392 184.995C183.136 184.31 182.51 184.153 181.513 184.526C180.412 184.937 179.916 185.591 180.026 186.486C180.06 186.857 180.013 187.151 179.885 187.369C179.766 187.57 179.549 187.729 179.234 187.846C178.88 187.979 178.57 187.988 178.303 187.875C178.045 187.744 177.856 187.517 177.735 187.193C177.549 186.695 177.555 186.153 177.755 185.568C177.955 184.982 178.338 184.427 178.905 183.904C179.484 183.375 180.226 182.941 181.131 182.603C182.39 182.133 183.44 182.003 184.281 182.214C185.122 182.425 185.713 182.985 186.052 183.894C186.276 184.492 186.242 185.143 185.952 185.847C185.671 186.534 185.199 187.151 184.536 187.696Z" fill="white"/>
<path d="M193.652 190.464C193.324 190.587 193.001 190.601 192.682 190.507C192.363 190.414 192.129 190.168 191.98 189.769L191.923 189.556C191.588 188.22 191.261 186.823 190.941 185.368C190.63 183.894 190.407 182.757 190.272 181.956L188.891 182.94L188.669 183.066C188.42 183.159 188.188 183.139 187.974 183.006C187.76 182.873 187.609 182.688 187.52 182.452L187.477 182.276C187.415 182.03 187.422 181.807 187.497 181.609C187.572 181.411 187.766 181.168 188.077 180.881C188.402 180.59 188.905 180.217 189.587 179.764L190.344 179.268C190.622 179.093 190.86 178.969 191.057 178.896C191.437 178.754 191.754 178.742 192.007 178.86C192.274 178.973 192.47 179.198 192.595 179.534C192.651 179.684 192.692 179.853 192.718 180.042C192.871 181.092 193.504 184.006 194.616 188.784C194.8 189.596 194.478 190.156 193.652 190.464Z" fill="white"/>
<path d="M201.048 187.701C200.72 187.824 200.397 187.838 200.078 187.744C199.759 187.651 199.525 187.405 199.376 187.006L199.319 186.793C198.984 185.457 198.657 184.06 198.337 182.605C198.026 181.131 197.803 179.994 197.668 179.193L196.287 180.177L196.065 180.303C195.816 180.396 195.584 180.376 195.37 180.243C195.156 180.11 195.005 179.925 194.917 179.689L194.874 179.513C194.811 179.267 194.818 179.045 194.893 178.846C194.969 178.648 195.162 178.405 195.473 178.119C195.798 177.827 196.301 177.454 196.984 177.001L197.74 176.505C198.019 176.33 198.256 176.206 198.453 176.133C198.833 175.991 199.15 175.979 199.403 176.097C199.67 176.21 199.866 176.435 199.992 176.771C200.047 176.921 200.088 177.09 200.114 177.279C200.267 178.329 200.9 181.243 202.012 186.021C202.196 186.833 201.875 187.393 201.048 187.701Z" fill="white"/>
<path d="M209.625 184.497C208.34 184.977 207.194 184.951 206.188 184.419C205.195 183.881 204.422 182.872 203.868 181.39C203.399 180.132 203.188 178.948 203.236 177.837C203.293 176.709 203.589 175.74 204.123 174.93C204.67 174.115 205.436 173.524 206.42 173.157C207.705 172.677 208.844 172.705 209.837 173.243C210.843 173.775 211.622 174.782 212.176 176.264C212.646 177.522 212.852 178.715 212.796 179.843C212.747 180.954 212.449 181.917 211.902 182.731C211.368 183.541 210.609 184.13 209.625 184.497ZM209.04 182.332C209.748 182.067 210.166 181.485 210.294 180.586C210.421 179.687 210.245 178.596 209.766 177.314C209.445 176.454 209.05 175.857 208.581 175.521C208.107 175.173 207.582 175.107 207.004 175.322C206.296 175.587 205.881 176.175 205.758 177.086C205.631 177.986 205.806 179.076 206.286 180.359C206.607 181.218 206.995 181.818 207.451 182.159C207.92 182.495 208.45 182.552 209.04 182.332Z" fill="white"/>
</g>
<defs>
<clipPath id="clip0">
<rect width="279" height="279" fill="white"/>
</clipPath>
</defs>
</svg>
